# xmcd
#
# Track frame offsets: 
#        150
#        6854
#        24608
#        39560
#        57308
#        74858
#        92643
#        106810
#        119093
#        134638
#        144378
#        165841
#        167690
#        183642
#        204329
#        209975
#        230654
#        233693
#        251496
#
# Disc length: 3388 seconds
#
# Revision: 61
# Processed by: cddbd v1.5.2PL0 Copyright (c) Steve Scherf et al.
# Submitted via: ExactAudioCopy v1.5
#
DISCID=1a0d3a13
DTITLE=OutKast - Speakerboxxx
DYEAR=2003
DGENRE=Hip-Hop
TTITLE0=Intro
TTITLE1=Ghetto Musick
TTITLE2=Unhappy
TTITLE3=Bowtie feat. Sleepy Brown and Jazze Pha
TTITLE4=The Way You Move feat. Sleepy Brown
TTITLE5=The Rooster
TTITLE6=Bust feat. Killer Mike
TTITLE7=War
TTITLE8=Church
TTITLE9=Bamboo (Interlude)
TTITLE10=Tomb of the Boom feat. Konkrete, Big Gipp and Ludacris
TTITLE11=E-Mac (Interlude)
TTITLE12=Knowing (Da Art of Storytellin' Pt. 3)
TTITLE13=Flip Flop Rock feat. Killer Mike and Jay-Z
TTITLE14=Interlude
TTITLE15=Reset feat. Khujo and Cee-Lo
TTITLE16=D-Boi (Interlude)
TTITLE17=Last Call feat. Slimm Calhoun, Lil' Jon and The Eastside Boyz
TTITLE17=and Mello
TTITLE18=Bowtie (Postlude)
EXTD=
EXTT0=
EXTT1=
EXTT2=
EXTT3=
EXTT4=
EXTT5=
EXTT6=
EXTT7=
EXTT8=
EXTT9=
EXTT10=
EXTT11=
EXTT12=
EXTT13=
EXTT14=
EXTT15=
EXTT16=
EXTT17=
EXTT18=
PLAYORDER=
